# xmcd
#
# Track frame offsets: 
#        150
#        23753
#        46869
#        67317
#        84173
#        108982
#        125851
#        147081
#        169171
#        187117
#        207552
#        222304
#        228744
#        243932
#        261532
#        284173
#        303967
#        321875
#
# Disc length: 4563 seconds
#
# Revision: 0
# Processed by: cddbd v1.5.2PL0 Copyright (c) Steve Scherf et al.
# Submitted via: ExactAudioCopyFreeDBPlugin 1.0
#
DISCID=1e11d112
DTITLE=Cat Hill BluesBand - WOODSTICKEL 2015 (live)
DYEAR=2015
DGENRE=Blues
TTITLE0=Gimme Shelter
TTITLE1=While My Guitar Gently Weeps
TTITLE2=I Shot The Sheriff
TTITLE3=Last Train To Clarksville
TTITLE4=Bad Blood
TTITLE5=The Weight
TTITLE6=Englishman In New York
TTITLE7=All Along The Watchtower
TTITLE8=Cajun Moon
TTITLE9=Walking By Myself
TTITLE10=Sticks And Stones
TTITLE11=Bandvorstellung
TTITLE12=Don't Cry Sister
TTITLE13=All Your Love
TTITLE14=Rock Me Baby
TTITLE15=Route 66
TTITLE16=Honky Tonk Women
TTITLE17=Got My Mojo Working
EXTD=
EXTT0=
EXTT1=
EXTT2=
EXTT3=
EXTT4=
EXTT5=
EXTT6=
EXTT7=
EXTT8=
EXTT9=
EXTT10=
EXTT11=
EXTT12=
EXTT13=
EXTT14=
EXTT15=
EXTT16=
EXTT17=
PLAYORDER=
